# xmcd
#
# Track frame offsets:
#	150
#	17358
#	32157
#	55140
#	70098
#	105138
#	124796
#	140987
#	160376
#	177857
#	189391
#
# Disc length: 2755 seconds
#
# Revision: 1
# Processed by: cddbd v1.5.2PL0 Copyright (c) Steve Scherf et al.
# Submitted via: audiograbber 1.82.01
#
DISCID=8d0ac10b
DTITLE=Jessy Martens and Jan Fischer's Blues Support - That's Way I'm Crying
DYEAR=2007
DGENRE=Blues
TTITLE0=Never Make Your Move Too Soon
TTITLE1=Mess Around
TTITLE2=Love Me Like A Man
TTITLE3=Good Morning Blues
TTITLE4=That's Way I'm Crying
TTITLE5=(I'm No) Sophisticated Mama
TTITLE6=Trying To Make A Living
TTITLE7=Hard Times
TTITLE8=Saved
TTITLE9=Summertime
TTITLE10=Summertime II
EXTD=
EXTT0=
EXTT1=
EXTT2=
EXTT3=
EXTT4=
EXTT5=
EXTT6=
EXTT7=
EXTT8=
EXTT9=
EXTT10=
PLAYORDER=
